<svg xmlns="http://www.w3.org/2000/svg" xmlns:xlink="http://www.w3.org/1999/xlink" width="688" height="688" viewBox="0 0 688 688">
  <defs>
    <clipPath id="clip-path">
      <rect id="Retângulo_2" data-name="Retângulo 2" width="688" height="688" transform="translate(0 -40)"/>
    </clipPath>
  </defs>
  <g id="github-background-light" transform="translate(0 40)" opacity="0.02">
    <g id="Grupo_2" data-name="Grupo 2" clip-path="url(#clip-path)">
      <path id="Caminho_2" data-name="Caminho 2" d="M344-25.667c-190.06,0-344,151.36-344,338.038C0,461.753,98.556,588.43,235.21,633.093c17.2,3.182,23.507-7.281,23.507-16.254,0-8.027-.287-29.3-.43-57.476-95.69,20.382-115.871-45.351-115.871-45.351-15.652-39.015-38.27-49.45-38.27-49.45-31.161-20.955,2.408-20.525,2.408-20.525,34.543,2.35,52.689,34.83,52.689,34.83,30.674,51.686,80.525,36.75,100.19,28.122,3.1-21.873,11.954-36.751,21.787-45.208-76.4-8.456-156.692-37.524-156.692-167.04,0-36.894,13.33-67.052,35.4-90.7-3.87-8.542-15.48-42.914,3.01-89.468,0,0,28.81-9.059,94.6,34.658a329.807,329.807,0,0,1,172,0c65.36-43.717,94.17-34.658,94.17-34.658,18.49,46.554,6.88,80.926,3.44,89.468,21.93,23.65,35.26,53.808,35.26,90.7,0,129.86-80.41,158.44-156.95,166.754,12.04,10.148,23.22,30.874,23.22,62.55,0,45.236-.43,81.586-.43,92.565,0,8.858,6.02,19.436,23.65,16.053C589.53,588.287,688,461.523,688,312.371,688,125.693,533.974-25.667,344-25.667Z"/>
    </g>
  </g>
</svg>
